<?xml version="1.0" encoding="utf-8"?><!DOCTYPE svg PUBLIC "-//W3C//DTD SVG 1.1//EN" "http://www.w3.org/Graphics/SVG/1.1/DTD/svg11.dtd"><svg viewBox="0 0 512 512" xmlns="http://www.w3.org/2000/svg" xmlns:xlink="http://www.w3.org/1999/xlink"><style>:root>svg{display:none}:root>svg:target{display:block}</style><svg viewBox="0 0 64 64" id="adaptive" xmlns="http://www.w3.org/2000/svg"><defs><linearGradient id="aa" x1="0" y1="60%" x2="100%" y2="40%"><stop offset="0%" stop-color="#689ad3"/><stop offset="80%" stop-color="#0d56a6"/></linearGradient></defs><path d="M60 1H40c-1.654 0-3 1.346-3 3v19H4c-1.654 0-3 1.346-3 3v26c0 1.654 1.346 3 3 3h15.382l-3 6H14v2h22v-2h-2.382l-3-6H46c1.654 0 3-1.346 3-3V41h11c1.654 0 3-1.346 3-3V4c0-1.654-1.346-3-3-3zM31.382 61H18.618l3-6h6.764zM46 53H4a1 1 0 01-1-1v-3h44v3a1 1 0 01-1 1zm1-6H3V26c0-.551.448-1 1-1h33v13c0 1.654 1.346 3 3 3h7zm14-9a1 1 0 01-1 1H40a1 1 0 01-1-1V4c0-.551.448-1 1-1h20c.552 0 1 .449 1 1z" fill="url(#aa)"/><path d="M59 4H41a1 1 0 00-1 1v29a1 1 0 001 1h18a1 1 0 001-1V5a1 1 0 00-1-1zm-1 29H42V6h16zM49 36h2v2h-2zM5 27h2v2H5zM9 27h26v2H9zM33 31h2v2h-2zM5 31h26v2H5zM5 35h2v2H5zM9 35h26v2H9zM33 39h2v2h-2zM5 39h26v2H5z" fill="url(#aa)"/></svg><svg fill="#e40045" viewBox="0 0 97.75 97.75" id="facebook" xmlns="http://www.w3.org/2000/svg"><path d="M48.875 0C21.882 0 0 21.882 0 48.875S21.882 97.75 48.875 97.75 97.75 75.868 97.75 48.875 75.868 0 48.875 0zm18.646 24.89l-6.76.003c-5.301 0-6.326 2.519-6.326 6.215v8.15h12.641l-.006 12.765H54.436v32.758H41.251V52.023H30.229V39.258h11.022v-9.414c0-10.925 6.675-16.875 16.42-16.875l9.851.015V24.89h-.001z"/></svg><svg viewBox="0 -64 512 512" id="front" xmlns="http://www.w3.org/2000/svg"><defs><linearGradient id="ca" x1="0" y1="60%" x2="100%" y2="40%"><stop offset="0%" stop-color="#689ad3"/><stop offset="80%" stop-color="#0d56a6"/></linearGradient></defs><path d="M432.844 351.688H80.156V143.28c0-4.43 3.59-8.015 8.016-8.015h336.656a8.012 8.012 0 018.016 8.015zm0 0" fill="#fff"/><path d="M104.203 135.266v216.422H80.156V143.28a8.012 8.012 0 018.016-8.015zm0 0" fill="url(#ca)"/><g fill="url(#ca)"><path d="M216.422 304.094h16.031v15.031h-16.031zm0 0M248.484 304.094h16.032v15.031h-16.032zm0 0M280.547 304.094h16.031v15.031h-16.031zm0 0"/></g><path d="M440.86 375.734H72.14a8.017 8.017 0 01-8.015-8.015v-24.047h152.297l8.016 8.015h64.125l8.015-8.015h152.297v24.047a8.015 8.015 0 01-8.016 8.015zm0 0M8.016 7.016h224.437v240.468H8.016zm0 0" fill="#fff"/><path d="M8.016 7.016h48.093v240.468H8.016zm0 0" fill="#fff"/><path d="M8.016 7.016h24.047v240.468H8.015zm0 0M280.547 7.016h224.437v240.468H280.547zm0 0" fill="#fff"/><path d="M280.547 7.016h224.437v48.093H280.547zm0 0" fill="#fff"/><path d="M280.547 7.016h24.047v48.093h-24.047zm0 0M280.547 55.11h24.047v192.374h-24.047zm0 0M312.61 23.547h16.03v15.027h-16.03zm0 0M344.672 23.547h16.031v15.027h-16.031zm0 0M376.734 23.547h16.032v15.027h-16.032zm0 0M312.61 87.172h160.312v48.094H312.609zm0 0M312.61 167.328h48.093v48.094H312.61zm0 0" fill="#fff"/><path d="M24.047 40.078h16.031V55.11H24.047zm0 0M72.14 72.14h80.157v15.032H72.14zm0 0M24.047 72.14h16.031v15.032H24.047zm0 0M168.328 72.14h32.063v15.032h-32.063zm0 0M128.25 104.203h72.14v15.031h-72.14zm0 0M72.14 104.203h40.079v15.031H72.14zm0 0M24.047 104.203h16.031v15.031H24.047zm0 0M72.14 40.078h64.126V55.11H72.14zm0 0M72.14 136.266h80.157v15.03H72.14zm0 0M24.047 136.266h16.031v15.03H24.047zm0 0M168.328 136.266h32.063v15.03h-32.063zm0 0M72.14 168.328h32.063v15.031H72.141zm0 0M24.047 168.328h16.031v15.031H24.047zm0 0M120.234 168.328h48.094v15.031h-48.094zm0 0M72.14 200.39h48.094v15.032H72.141zm0 0M24.047 200.39h16.031v15.032H24.047zm0 0M136.266 200.39h64.125v15.032h-64.125zm0 0" fill="url(#ca)"/><path d="M512 255.5V0H272.531v63.125H496.97v177.344H287.563V79.156H272.53v49.094H239.47V0H0v255.5h239.469V143.281h33.062V255.5h152.297v81.156h-131.36l-8.015 8.016h-57.902l-8.016-8.016H87.172v-65.125H72.14v65.125H56.109v31.063c0 8.562 7.47 16.031 16.032 16.031h368.718c8.567 0 15.032-7.469 15.032-16.031v-31.063h-16.032V255.5zM287.562 48.094V15.03H496.97v33.063zM15.033 15.03h33.062V240.47H15.03zM224.436 240.47H63.125V15.03h161.313zm216.422 127.25c0 .273.278 1 0 1H72.141c-.274 0-1-.727-1-1v-16.031h142.171l8.016 8.015h70.348l8.015-8.015H440.86zm0 0" fill="url(#ca)"/><path d="M304.594 143.281h175.344V80.156H304.594zm15.031-48.094h145.281v33.063H319.625zm0 0M304.594 223.438h63.125v-63.125h-63.125zm15.031-48.094h33.063v33.062h-33.063zm0 0M384.75 160.313h96.188v15.03H384.75zm0 0M384.75 184.36h96.188v15.03H384.75zm0 0M384.75 208.406h96.188v15.031H384.75zm0 0" fill="url(#ca)"/></svg><svg fill="#e40045" viewBox="0 0 97.75 97.75" id="google-plus" xmlns="http://www.w3.org/2000/svg"><path d="M50.729 33.67c0-6.775-4.039-17.311-11.826-17.311-2.448 0-5.071 1.222-6.577 3.105-1.598 1.979-2.062 4.511-2.062 6.965 0 6.3 3.658 16.741 11.736 16.741 2.345 0 4.872-1.123 6.382-2.63 2.159-2.171 2.347-5.175 2.347-6.87zM45.657 58.414c-.748-.094-1.218-.094-2.156-.094-.847 0-5.918.185-9.859 1.511-2.064.748-8.071 3.008-8.071 9.687 0 6.682 6.478 11.485 16.522 11.485 9.015 0 13.804-4.338 13.804-10.163-.001-4.813-3.099-7.344-10.24-12.426z"/><path d="M48.875 0C21.882 0 0 21.882 0 48.875S21.882 97.75 48.875 97.75 97.75 75.868 97.75 48.875 75.868 0 48.875 0zM37.489 84.945c-13.616 0-20.184-6.488-20.184-13.455 0-3.385 1.687-8.18 7.227-11.475 5.818-3.576 13.709-4.043 17.936-4.334-1.319-1.692-2.816-3.479-2.816-6.395 0-1.597.47-2.539.934-3.669-1.034.096-2.062.188-3.002.188-9.948 0-15.581-7.438-15.581-14.775 0-4.322 1.969-9.124 6.005-12.605 5.354-4.422 12.67-5.622 17.744-5.622H64.25l-6.105 3.836h-5.816c2.158 1.786 6.658 5.549 6.658 12.703 0 6.957-3.938 10.259-7.879 13.36-1.223 1.221-2.632 2.538-2.632 4.611 0 2.065 1.41 3.193 2.44 4.047l3.383 2.628c4.132 3.479 7.888 6.679 7.886 13.177-.001 8.847-8.55 17.78-24.696 17.78zm40.516-37.22v9.464h-4.646v-9.464h-9.393v-4.697h9.393v-9.406h4.646v9.406h9.438v4.697h-9.438z"/></svg><svg fill="#e40045" viewBox="0 0 97.75 97.75" id="instagram" xmlns="http://www.w3.org/2000/svg"><ellipse cx="48.944" cy="48.719" rx="14.465" ry="14.017"/><path d="M71.333 49.501c0 11.981-10.024 21.692-22.389 21.692s-22.389-9.711-22.389-21.692c0-2.147.324-4.221.924-6.18h-6.616v30.427a2.87 2.87 0 002.863 2.863h50.159a2.871 2.871 0 002.865-2.863V43.321h-6.341c.599 1.959.924 4.033.924 6.18zM65.332 35.11h8.141a3.25 3.25 0 003.242-3.242v-7.762a3.25 3.25 0 00-3.242-3.243h-8.141a3.25 3.25 0 00-3.243 3.243v7.762a3.25 3.25 0 003.243 3.242z"/><path d="M48.875 0C21.882 0 0 21.882 0 48.875S21.882 97.75 48.875 97.75 97.75 75.868 97.75 48.875 75.868 0 48.875 0zm26.77 84.891H22.106c-5.087 0-9.246-3.765-9.246-9.244V22.105c0-5.481 4.159-9.245 9.246-9.245h53.539c5.086 0 9.246 3.764 9.246 9.245v53.542c0 5.479-4.161 9.244-9.246 9.244z"/></svg><svg fill="#e40045" viewBox="0 0 97.75 97.75" id="linkedin" xmlns="http://www.w3.org/2000/svg"><path d="M48.875 0C21.882 0 0 21.882 0 48.875S21.882 97.75 48.875 97.75 97.75 75.868 97.75 48.875 75.868 0 48.875 0zM30.562 81.966h-13.74V37.758h13.74v44.208zm-6.867-50.251a7.968 7.968 0 01-7.969-7.968 7.968 7.968 0 017.969-7.964c4.392 0 7.962 3.57 7.962 7.964 0 4.399-3.571 7.968-7.962 7.968zm58.328 50.251H68.294V60.467c0-5.127-.095-11.721-7.142-11.721-7.146 0-8.245 5.584-8.245 11.35v21.869H39.179V37.758h13.178v6.041h.185c1.835-3.476 6.315-7.14 13-7.14 13.913 0 16.481 9.156 16.481 21.059v24.248z"/></svg><svg viewBox="0 0 64 64" id="setting" xmlns="http://www.w3.org/2000/svg"><g data-name="Monitor setting"><defs><linearGradient id="ga" x1="0" y1="60%" x2="100%" y2="40%"><stop offset="0%" stop-color="#689ad3"/><stop offset="80%" stop-color="#0d56a6"/></linearGradient></defs><path d="M57 10h-3a1 1 0 000 2h3a3 3 0 013 3v32a3 3 0 01-3 3H7a3 3 0 01-3-3V15a3 3 0 013-3h3a1 1 0 000-2H7a5.006 5.006 0 00-5 5v32a5.006 5.006 0 005 5h18v4h-7a3 3 0 000 6h28a3 3 0 000-6h-7v-4h18a5.006 5.006 0 005-5V15a5.006 5.006 0 00-5-5zM47 59a1 1 0 01-1 1H18a1 1 0 010-2h28a1 1 0 011 1zm-10-3H27v-4h10z" fill="url(#ga)"/><path d="M31 47a1 1 0 000 2h2a1 1 0 000-2zM34 21h1.756l-1.243 1.243a1 1 0 000 1.414l2.83 2.83a1 1 0 001.414 0L40 25.244V27a1 1 0 001 1h4a1 1 0 001-1v-1.756l1.243 1.243a1 1 0 001.414 0l2.83-2.83a1 1 0 000-1.414L50.244 21H52a1 1 0 001-1v-4a1 1 0 00-1-1h-1.756l1.243-1.243a1 1 0 000-1.414l-2.83-2.83a1 1 0 00-1.414 0L46 10.756V9a1 1 0 00-1-1h-4a1 1 0 00-1 1v1.756l-1.243-1.243a1 1 0 00-1.414 0l-2.83 2.83a1 1 0 000 1.414L35.756 15H34a1 1 0 00-1 1v4a1 1 0 001 1zm1-4h2.35a1 1 0 00.958-.713 2.239 2.239 0 01.167-.4 1 1 0 00-.178-1.173l-1.663-1.664 1.416-1.416 1.663 1.666a1 1 0 001.171.179 2.262 2.262 0 01.4-.168A1 1 0 0042 12.35V10h2v2.35a1 1 0 00.713.958 2.262 2.262 0 01.4.168 1 1 0 001.171-.179l1.663-1.663 1.416 1.416-1.663 1.663a1 1 0 00-.179 1.171 2.262 2.262 0 01.168.4 1 1 0 00.961.716H51v2h-2.35a1 1 0 00-.958.713 2.262 2.262 0 01-.168.4 1 1 0 00.179 1.171l1.663 1.663-1.416 1.419-1.663-1.666a1 1 0 00-1.171-.179 2.262 2.262 0 01-.4.168 1 1 0 00-.716.961V26h-2v-2.35a1 1 0 00-.713-.958 2.262 2.262 0 01-.4-.168 1 1 0 00-1.171.179l-1.666 1.663-1.416-1.416 1.666-1.663a1 1 0 00.178-1.173 2.239 2.239 0 01-.167-.4A1 1 0 0037.35 19H35z" fill="url(#ga)"/><path d="M26 28v3.753c-.144.057-.283.114-.419.174l-2.654-2.654a1 1 0 00-1.414 0l-4.24 4.24a1 1 0 000 1.414l2.654 2.654c-.06.136-.117.275-.174.419H16a1 1 0 00-1 1v5H8V16h2a1 1 0 000-2H7a1 1 0 00-1 1v30a1 1 0 001 1h50a1 1 0 001-1V15a1 1 0 00-1-1h-2a1 1 0 000 2h1v28H45v-5a1 1 0 00-1-1h-3.753a11.751 11.751 0 00-.174-.419l2.654-2.654a1 1 0 000-1.414l-4.24-4.24a1.029 1.029 0 00-1.414 0l-2.654 2.654c-.136-.06-.275-.117-.419-.174V28a1 1 0 00-1-1h-6a1 1 0 00-1 1zm0 14a4 4 0 018 0 3.943 3.943 0 01-.544 2h-6.912A3.943 3.943 0 0126 42zm2-9.54V29h4v3.46a1 1 0 00.694.952 8.259 8.259 0 011.445.605 1 1 0 001.188-.17l2.453-2.453 2.826 2.826-2.453 2.453a1 1 0 00-.17 1.188 8.259 8.259 0 01.605 1.445 1 1 0 00.952.694H43v4h-7.346a6 6 0 10-11.308 0H17v-4h3.46a1 1 0 00.952-.694 8.259 8.259 0 01.605-1.445 1 1 0 00-.17-1.188l-2.453-2.453 2.826-2.826 2.453 2.453a1 1 0 001.188.17 8.259 8.259 0 011.445-.605A1 1 0 0028 32.46z" fill="url(#ga)"/><path d="M43 22a4 4 0 10-4-4 4 4 0 004 4zm0-6a2 2 0 11-2 2 2 2 0 012-2zM13 15h1.756l-1.243 1.243a1 1 0 000 1.414l2.83 2.83a1 1 0 001.414 0L19 19.244V21a1 1 0 001 1h4a1 1 0 001-1v-1.756l1.243 1.243a1 1 0 001.414 0l2.83-2.83a1 1 0 000-1.414L29.244 15H31a1 1 0 001-1v-4a1 1 0 00-1-1h-1.756l1.243-1.243a1 1 0 000-1.414l-2.83-2.83a1 1 0 00-1.414 0L25 4.756V3a1 1 0 00-1-1h-4a1 1 0 00-1 1v1.756l-1.243-1.243a1 1 0 00-1.414 0l-2.83 2.83a1 1 0 000 1.414L14.756 9H13a1 1 0 00-1 1v4a1 1 0 001 1zm1-4h2.35a1 1 0 00.958-.713 2.239 2.239 0 01.167-.4 1 1 0 00-.175-1.174L15.634 7.05l1.416-1.416L18.713 7.3a1 1 0 001.171.179 2.262 2.262 0 01.4-.168A1 1 0 0021 6.35V4h2v2.35a1 1 0 00.713.958 2.262 2.262 0 01.4.168 1 1 0 001.174-.176l1.663-1.666 1.416 1.416L26.7 8.713a1 1 0 00-.179 1.171 2.262 2.262 0 01.168.4 1 1 0 00.961.716H30v2h-2.35a1 1 0 00-.958.713 2.262 2.262 0 01-.168.4 1 1 0 00.179 1.171l1.663 1.663-1.416 1.419-1.663-1.666a1 1 0 00-1.171-.179 2.262 2.262 0 01-.4.168 1 1 0 00-.716.961V20h-2v-2.35a1 1 0 00-.713-.958 2.262 2.262 0 01-.4-.168 1 1 0 00-1.171.179l-1.666 1.663-1.416-1.416 1.666-1.663a1 1 0 00.178-1.173 2.239 2.239 0 01-.167-.4A1 1 0 0016.35 13H14z" fill="url(#ga)"/><path d="M22 16a4 4 0 10-4-4 4 4 0 004 4zm0-6a2 2 0 11-2 2 2 2 0 012-2z" fill="url(#ga)"/></g></svg><svg fill="#e40045" viewBox="0 0 97.75 97.75" id="twitter" xmlns="http://www.w3.org/2000/svg"><path d="M48.875 0C21.882 0 0 21.882 0 48.875S21.882 97.75 48.875 97.75 97.75 75.868 97.75 48.875 75.868 0 48.875 0zM78.43 35.841c.023.577.035 1.155.035 1.736 0 20.878-15.887 42.473-42.473 42.473a42.306 42.306 0 01-22.883-6.708.36.36 0 01-.145-.427.365.365 0 01.383-.237c1.148.137 2.322.205 3.487.205 6.323 0 12.309-1.955 17.372-5.664a15.157 15.157 0 01-13.161-10.478.364.364 0 01.073-.351.365.365 0 01.339-.115 14.55 14.55 0 005.04.072c-6.259-1.945-10.658-7.808-10.658-14.483l.002-.194a.362.362 0 01.537-.309 14.493 14.493 0 005.291 1.711A15.144 15.144 0 0115.96 31.21c0-2.682.71-5.318 2.054-7.623a.36.36 0 01.284-.178.354.354 0 01.309.132c7.362 9.03 18.191 14.59 29.771 15.305a15.344 15.344 0 01-.291-2.985c0-8.361 6.802-15.162 15.162-15.162 4.11 0 8.082 1.689 10.929 4.641a29.23 29.23 0 009.09-3.508.363.363 0 01.41.028c.116.094.164.25.118.394a15.14 15.14 0 01-5.33 7.489 29.15 29.15 0 006.831-2.072.361.361 0 01.447.533 30.22 30.22 0 01-7.314 7.637z"/></svg><svg fill="#e40045" viewBox="0 0 97.75 97.75" id="vk" xmlns="http://www.w3.org/2000/svg"><path d="M48.875 0C21.883 0 0 21.882 0 48.875S21.883 97.75 48.875 97.75 97.75 75.868 97.75 48.875 75.867 0 48.875 0zm24.792 54.161c2.278 2.225 4.688 4.319 6.733 6.774.906 1.086 1.76 2.209 2.41 3.472.928 1.801.09 3.776-1.522 3.883l-10.013-.002c-2.586.214-4.644-.829-6.379-2.597-1.385-1.409-2.67-2.914-4.004-4.371-.545-.598-1.119-1.161-1.803-1.604-1.365-.888-2.551-.616-3.333.81-.797 1.451-.979 3.059-1.055 4.674-.109 2.361-.821 2.978-3.19 3.089-5.062.237-9.865-.531-14.329-3.083-3.938-2.251-6.986-5.428-9.642-9.025-5.172-7.012-9.133-14.708-12.692-22.625-.801-1.783-.215-2.737 1.752-2.774 3.268-.063 6.536-.055 9.804-.003 1.33.021 2.21.782 2.721 2.037 1.766 4.345 3.931 8.479 6.644 12.313.723 1.021 1.461 2.039 2.512 2.76 1.16.796 2.044.533 2.591-.762.35-.823.501-1.703.577-2.585.26-3.021.291-6.041-.159-9.05-.28-1.883-1.339-3.099-3.216-3.455-.956-.181-.816-.535-.351-1.081.807-.944 1.563-1.528 3.074-1.528l11.313-.002c1.783.35 2.183 1.15 2.425 2.946l.01 12.572c-.021.695.349 2.755 1.597 3.21 1 .33 1.66-.472 2.258-1.105 2.713-2.879 4.646-6.277 6.377-9.794.764-1.551 1.423-3.156 2.063-4.764.476-1.189 1.216-1.774 2.558-1.754l10.894.013c.321 0 .647.003.965.058 1.836.314 2.339 1.104 1.771 2.895-.894 2.814-2.631 5.158-4.329 7.508-1.82 2.516-3.761 4.944-5.563 7.471-1.656 2.31-1.525 3.473.531 5.479z"/></svg><svg viewBox="0 0 480 480" id="web-design" xmlns="http://www.w3.org/2000/svg"><path fill="url(#ja)" d="M232 400h16v16h-16z"/><defs><linearGradient id="ja" x1="0" y1="60%" x2="100%" y2="40%"><stop offset="0%" stop-color="#689ad3"/><stop offset="80%" stop-color="#0d56a6"/></linearGradient></defs><path d="M472 416h-8V128c0-17.673-14.327-32-32-32h-48V32c0-17.673-14.327-32-32-32H128c-17.673 0-32 14.327-32 32v64H48c-17.673 0-32 14.327-32 32v288H8a8 8 0 00-8 8v24c0 17.673 14.327 32 32 32h416c17.673 0 32-14.327 32-32v-24a8 8 0 00-8-8zM112 32c0-8.837 7.163-16 16-16h224c8.837 0 16 7.163 16 16v32H112V32zm0 48h256v232c0 8.837-7.163 16-16 16H128c-8.837 0-16-7.163-16-16V80zm16 264h224c17.673 0 32-14.327 32-32V144h32v224H64V144h32v168c0 17.673 14.327 32 32 32zM32 128c0-8.837 7.163-16 16-16h48v16H56a8 8 0 00-8 8v240a8 8 0 008 8h368a8 8 0 008-8V136a8 8 0 00-8-8h-40v-16h48c8.837 0 16 7.163 16 16v288H312a8 8 0 00-5.656 2.336L292.688 432H187.312l-13.656-13.664A8 8 0 00168 416H32V128zm432 320c0 8.837-7.163 16-16 16H32c-8.837 0-16-7.163-16-16v-16h148.688l13.656 13.656A8 8 0 00184 448h112a8 8 0 005.656-2.344L315.312 432H464v16z" fill="url(#ja)"/><path fill="url(#ja)" d="M136 256h208v16H136zM136 288h192v16H136zM184 224h160v16H184zM128 32h16v16h-16zM160 32h16v16h-16zM192 32h16v16h-16zM152 224h16v16h-16zM212.8 134.4l-9.6-12.8-32 24a8 8 0 000 12.8l32 24 9.6-12.8-23.464-17.6 23.464-17.6zM310.4 147.2a8.032 8.032 0 00-1.6-1.6l-32-24-9.6 12.8 23.464 17.6-23.464 17.6 9.6 12.8 32-24a8 8 0 001.6-11.2z"/><path transform="rotate(-68.191 240.02 152.004)" fill="url(#ja)" d="M196.925 144h86.16v16h-86.16z"/></svg></svg>